# xmcd CD database file
#
# Track frame offsets:
#	150
#	26543
#	61755
#	79933
#	125620
#	148169
#	171669
#	195251
#	220733
#	242770
#
# Disc length: 3551 seconds
#
# Revision: 1
# Processed by: cddbd v1.5.1PL2 Copyright (c) Steve Scherf et al.
# Submitted via: CDex 1.51
#
DISCID=8d0ddd0a
DTITLE=Qary Bastidas - Yahe Meditation
DYEAR=2003
DGENRE=Country
TTITLE0=Valle del Alto
TTITLE1=La Oracion del Mitayo
TTITLE2=Blue Sky
TTITLE3=Ilaky Runa
TTITLE4=Condor Pasa
TTITLE5=Flying Condor
TTITLE6=White Buffalo
TTITLE7=Axtu Leman Sumix
TTITLE8=Yeha Noha
TTITLE9=Ly-O-Lay-Ale-Loya
EXTD=YEAR: 2003
EXTT0=
EXTT1=
EXTT2=
EXTT3=
EXTT4=
EXTT5=
EXTT6=
EXTT7=
EXTT8=
EXTT9=
PLAYORDER=
